solid OpenSCAD_Model
  facet normal -1 0 0
    outer loop
      vertex -10 -10 40
      vertex -10 30 0
      vertex -10 -10 0
    endloop
  endfacet
  facet normal -1 0 0
    outer loop
      vertex -10 30 0
      vertex -10 -10 40
      vertex -10 30 50
    endloop
  endfacet
  facet normal -1 -0 0
    outer loop
      vertex -10 30 50
      vertex -10 -10 40
      vertex -10 -10 50
    endloop
  endfacet
  facet normal 0 0 1
    outer loop
      vertex 0 30 50
      vertex -10 30 50
      vertex 0 0 50
    endloop
  endfacet
  facet normal -0 0 1
    outer loop
      vertex 0 0 50
      vertex 10 -10 50
      vertex 10 0 50
    endloop
  endfacet
  facet normal 0 0 1
    outer loop
      vertex 0 0 50
      vertex -10 -10 50
      vertex 10 -10 50
    endloop
  endfacet
  facet normal 0 0 1
    outer loop
      vertex -10 -10 50
      vertex 0 0 50
      vertex -10 30 50
    endloop
  endfacet
  facet normal 1 0 0
    outer loop
      vertex 0 0 40
      vertex 0 30 50
      vertex 0 0 50
    endloop
  endfacet
  facet normal 1 0 0
    outer loop
      vertex 0 30 50
      vertex 0 0 40
      vertex 0 30 0
    endloop
  endfacet
  facet normal 1 0 0
    outer loop
      vertex 0 30 0
      vertex 0 0 40
      vertex 0 0 0
    endloop
  endfacet
  facet normal 0 0 -1
    outer loop
      vertex -10 30 0
      vertex 0 0 0
      vertex -10 -10 0
    endloop
  endfacet
  facet normal 0 0 -1
    outer loop
      vertex 0 0 0
      vertex -10 30 0
      vertex 0 30 0
    endloop
  endfacet
  facet normal 0 0 -1
    outer loop
      vertex 10 -10 0
      vertex 0.0707102 -0.0707102 0
      vertex 10 0 0
    endloop
  endfacet
  facet normal 0 -0 -1
    outer loop
      vertex 0.0707102 -0.0707102 0
      vertex 10 -10 0
      vertex -9.85858 -10 0
    endloop
  endfacet
  facet normal -0 0 -1
    outer loop
      vertex 10 0 0
      vertex 0.0707102 -0.0707102 0
      vertex 0 0 0
    endloop
  endfacet
  facet normal 0 -1 0
    outer loop
      vertex -9.85858 -10 40
      vertex -10 -10 50
      vertex -10 -10 40
    endloop
  endfacet
  facet normal 0 -1 0
    outer loop
      vertex -10 -10 50
      vertex -9.85858 -10 40
      vertex 10 -10 50
    endloop
  endfacet
  facet normal 0 -1 0
    outer loop
      vertex 10 -10 0
      vertex -9.85858 -10 40
      vertex -9.85858 -10 0
    endloop
  endfacet
  facet normal 0 -1 0
    outer loop
      vertex -9.85858 -10 40
      vertex 10 -10 0
      vertex 10 -10 50
    endloop
  endfacet
  facet normal 0 1 -0
    outer loop
      vertex 0 30 0
      vertex -10 30 50
      vertex 0 30 50
    endloop
  endfacet
  facet normal 0 1 0
    outer loop
      vertex -10 30 50
      vertex 0 30 0
      vertex -10 30 0
    endloop
  endfacet
  facet normal 1 -0 0
    outer loop
      vertex 10 -10 50
      vertex 10 0 0
      vertex 10 0 50
    endloop
  endfacet
  facet normal 1 0 0
    outer loop
      vertex 10 0 0
      vertex 10 -10 50
      vertex 10 -10 0
    endloop
  endfacet
  facet normal 0 1 0
    outer loop
      vertex 10 0 50
      vertex 0 0 40
      vertex 0 0 50
    endloop
  endfacet
  facet normal 0 1 -0
    outer loop
      vertex 10 0 0
      vertex 0 0 40
      vertex 10 0 50
    endloop
  endfacet
  facet normal 0 1 0
    outer loop
      vertex 0 0 40
      vertex 10 0 0
      vertex 0 0 0
    endloop
  endfacet
  facet normal 0.707107 -0.707107 0
    outer loop
      vertex -10 -10 40
      vertex 0 0 0
      vertex 0 0 40
    endloop
  endfacet
  facet normal 0.707107 -0.707107 0
    outer loop
      vertex 0 0 0
      vertex -10 -10 40
      vertex -10 -10 0
    endloop
  endfacet
  facet normal 0 0 -1
    outer loop
      vertex -9.85858 -10 40
      vertex 0 0 40
      vertex 0.0707102 -0.0707102 40
    endloop
  endfacet
  facet normal 0 0 -1
    outer loop
      vertex 0 0 40
      vertex -9.85858 -10 40
      vertex -10 -10 40
    endloop
  endfacet
  facet normal -0.707107 0.707107 0
    outer loop
      vertex -9.85858 -10 0
      vertex 0.0707102 -0.0707102 40
      vertex 0.0707102 -0.0707102 0
    endloop
  endfacet
  facet normal -0.707107 0.707107 0
    outer loop
      vertex 0.0707102 -0.0707102 40
      vertex -9.85858 -10 0
      vertex -9.85858 -10 40
    endloop
  endfacet
  facet normal -0.707107 -0.707107 0
    outer loop
      vertex 0.0707102 -0.0707102 0
      vertex 0 0 40
      vertex 0 0 0
    endloop
  endfacet
  facet normal -0.707107 -0.707107 0
    outer loop
      vertex 0 0 40
      vertex 0.0707102 -0.0707102 0
      vertex 0.0707102 -0.0707102 40
    endloop
  endfacet
endsolid OpenSCAD_Model
